<?xml version="1.0" encoding="UTF-8"?>
<svg xmlns="http://www.w3.org/2000/svg" viewBox="0 0 1000 700" font-family="Helvetica, Arial, sans-serif">
  <defs>
    <marker id="ah-red" viewBox="0 0 10 10" refX="9" refY="5" markerWidth="7" markerHeight="7" orient="auto-start-reverse">
      <path d="M0,0 L10,5 L0,10 z" fill="#c62828"/>
    </marker>
    <marker id="ah-orange" viewBox="0 0 10 10" refX="9" refY="5" markerWidth="7" markerHeight="7" orient="auto-start-reverse">
      <path d="M0,0 L10,5 L0,10 z" fill="#e98a2e"/>
    </marker>
    <pattern id="grid" x="0" y="0" width="40" height="40" patternUnits="userSpaceOnUse">
      <path d="M 40 0 L 0 0 0 40" fill="none" stroke="#e6e9ef" stroke-width="0.6"/>
    </pattern>
  </defs>

  <rect width="1000" height="700" fill="#ffffff"/>
  <rect x="60" y="90" width="880" height="540" fill="url(#grid)" stroke="#dde1e8" stroke-width="1" rx="4"/>

  <text x="500" y="44" text-anchor="middle" font-size="22" fill="#e04a6b" font-weight="600">brain</text>
  <text x="500" y="64" text-anchor="middle" font-size="11" fill="#c97386">N_Spring, S_Autumn, Morning, Friday, Day17, April, Yr2026, Hr10, Qu4</text>
  <text x="500" y="78" text-anchor="middle" font-size="9" fill="#6b7280">Intent: brain,jeremy,mark  ·  Response: Orbits  ·  Fri:Hr10:Qu4-Min50_55</text>

  <!-- Orbit arrows: primary -> orbit destination -->
  <g stroke-width="1.2" fill="none">
    <!-- From P1 human brain (680,350) -->
    <line x1="680" y1="350" x2="797" y2="392" stroke="#c62828" marker-end="url(#ah-red)"/>
    <line x1="680" y1="350" x2="680" y2="266" stroke="#c62828" marker-end="url(#ah-red)"/>
    <line x1="680" y1="350" x2="563" y2="392" stroke="#c62828" marker-end="url(#ah-red)"/>
    <!-- radius-2 from forebrain (563,392) -->
    <line x1="563" y1="392" x2="602" y2="378" stroke="#e98a2e" marker-end="url(#ah-orange)"/>
    <line x1="563" y1="392" x2="524" y2="406" stroke="#e98a2e" marker-end="url(#ah-orange)"/>

    <!-- From P2 key nexus (646,284) -->
    <line x1="646" y1="284" x2="762" y2="326" stroke="#c62828" marker-end="url(#ah-red)"/>
    <!-- r2 from hypothalamus (762,326) -->
    <line x1="762" y1="326" x2="802" y2="312" stroke="#e98a2e" marker-end="url(#ah-orange)"/>
    <line x1="762" y1="326" x2="740" y2="302" stroke="#e98a2e" marker-end="url(#ah-orange)"/>
    <line x1="762" y1="326" x2="724" y2="340" stroke="#e98a2e" marker-end="url(#ah-orange)"/>
    <line x1="762" y1="326" x2="785" y2="350" stroke="#e98a2e" marker-end="url(#ah-orange)"/>

    <!-- From P3 Type commands (556,244) -->
    <line x1="556" y1="244" x2="672" y2="286" stroke="#c62828" marker-end="url(#ah-red)"/>

    <!-- From P4 jeremy's exo-brain (444,244) -->
    <line x1="444" y1="244" x2="561" y2="286" stroke="#c62828" marker-end="url(#ah-red)"/>

    <!-- From P5 \notes \on brain (354,284) -->
    <line x1="354" y1="284" x2="471" y2="326" stroke="#c62828" marker-end="url(#ah-red)"/>

    <!-- From P6 on/about/for (320,350) -->
    <line x1="320" y1="350" x2="437" y2="392" stroke="#c62828" marker-end="url(#ah-red)"/>
    <line x1="320" y1="350" x2="388" y2="277" stroke="#c62828" marker-end="url(#ah-red)"/>
    <line x1="320" y1="350" x2="203" y2="308" stroke="#c62828" marker-end="url(#ah-red)"/>
    <line x1="320" y1="350" x2="253" y2="423" stroke="#c62828" marker-end="url(#ah-red)"/>

    <!-- From P7 early telencephalon (354,416) -->
    <line x1="354" y1="416" x2="471" y2="458" stroke="#c62828" marker-end="url(#ah-red)"/>
    <!-- r2 from hypothalamus (471,458) -->
    <line x1="471" y1="458" x2="510" y2="444" stroke="#e98a2e" marker-end="url(#ah-orange)"/>
    <line x1="471" y1="458" x2="483" y2="431" stroke="#e98a2e" marker-end="url(#ah-orange)"/>
    <line x1="471" y1="458" x2="449" y2="434" stroke="#e98a2e" marker-end="url(#ah-orange)"/>
    <line x1="471" y1="458" x2="428" y2="451" stroke="#e98a2e" marker-end="url(#ah-orange)"/>
    <line x1="471" y1="458" x2="433" y2="472" stroke="#e98a2e" marker-end="url(#ah-orange)"/>
    <line x1="471" y1="458" x2="460" y2="485" stroke="#e98a2e" marker-end="url(#ah-orange)"/>
    <line x1="471" y1="458" x2="494" y2="482" stroke="#e98a2e" marker-end="url(#ah-orange)"/>
    <line x1="471" y1="458" x2="515" y2="465" stroke="#e98a2e" marker-end="url(#ah-orange)"/>

    <!-- From P8 receive inputs (444,456) -->
    <line x1="444" y1="456" x2="561" y2="498" stroke="#c62828" marker-end="url(#ah-red)"/>

    <!-- From P9 jeremy's exo-brain (556,456) -->
    <line x1="556" y1="456" x2="672" y2="498" stroke="#c62828" marker-end="url(#ah-red)"/>

    <!-- From P10 jeremy's exo-brain (646,416) -->
    <line x1="646" y1="416" x2="762" y2="458" stroke="#c62828" marker-end="url(#ah-red)"/>
  </g>

  <!-- Primary nodes -->
  <g fill="#c62828">
    <circle cx="680" cy="350" r="4.5"/>
    <circle cx="646" cy="284" r="4.5"/>
    <circle cx="556" cy="244" r="4.5"/>
    <circle cx="444" cy="244" r="4.5"/>
    <circle cx="354" cy="284" r="4.5"/>
    <circle cx="320" cy="350" r="4.5"/>
    <circle cx="354" cy="416" r="4.5"/>
    <circle cx="444" cy="456" r="4.5"/>
    <circle cx="556" cy="456" r="4.5"/>
    <circle cx="646" cy="416" r="4.5"/>
  </g>

  <!-- Orbit nodes (smaller) -->
  <g fill="#c62828">
    <circle cx="797" cy="392" r="3"/>
    <circle cx="680" cy="266" r="3"/>
    <circle cx="563" cy="392" r="3"/>
    <circle cx="602" cy="378" r="2.5"/>
    <circle cx="524" cy="406" r="2.5"/>
    <circle cx="762" cy="326" r="3"/>
    <circle cx="802" cy="312" r="2.5"/>
    <circle cx="740" cy="302" r="2.5"/>
    <circle cx="724" cy="340" r="2.5"/>
    <circle cx="785" cy="350" r="2.5"/>
    <circle cx="672" cy="286" r="3"/>
    <circle cx="561" cy="286" r="3"/>
    <circle cx="471" cy="326" r="3"/>
    <circle cx="437" cy="392" r="3"/>
    <circle cx="388" cy="277" r="3"/>
    <circle cx="203" cy="308" r="3"/>
    <circle cx="253" cy="423" r="3"/>
    <circle cx="471" cy="458" r="3"/>
    <circle cx="510" cy="444" r="2.5"/>
    <circle cx="483" cy="431" r="2.5"/>
    <circle cx="449" cy="434" r="2.5"/>
    <circle cx="428" cy="451" r="2.5"/>
    <circle cx="433" cy="472" r="2.5"/>
    <circle cx="460" cy="485" r="2.5"/>
    <circle cx="494" cy="482" r="2.5"/>
    <circle cx="515" cy="465" r="2.5"/>
    <circle cx="561" cy="498" r="3"/>
    <circle cx="672" cy="498" r="3"/>
    <circle cx="762" cy="458" r="3"/>
  </g>

  <!-- Labels: primaries -->
  <g font-size="10" fill="#1f2937">
    <text x="688" y="346">human brain</text>
    <text x="654" y="280">key nexus (body↔brain)</text>
    <text x="564" y="240">Type commands to search…</text>
    <text x="436" y="240" text-anchor="end">jeremy's exo-brain</text>
    <text x="346" y="280" text-anchor="end">\notes \on brain</text>
    <text x="312" y="346" text-anchor="end">on / about / for</text>
    <text x="346" y="430" text-anchor="end">early telencephalon…</text>
    <text x="436" y="470" text-anchor="end">receive inputs (layer 4)</text>
    <text x="564" y="470">jeremy's exo-brain</text>
    <text x="654" y="430">jeremy's exo-brain</text>
  </g>

  <!-- Labels: orbit destinations (smaller, muted) -->
  <g font-size="8.5" fill="#4b5563">
    <text x="803" y="390">midbrain</text>
    <text x="684" y="263">hindbrain</text>
    <text x="563" y="404">forebrain</text>
    <text x="606" y="376">hypothalamus</text>
    <text x="520" y="418" text-anchor="end">thalamus</text>
    <text x="768" y="324">hypothalamus</text>
    <text x="806" y="310">early telencephalon</text>
    <text x="744" y="298">hormones</text>
    <text x="728" y="338">urges (eat, drink, sleep…)</text>
    <text x="790" y="352">→ neocortex</text>
    <text x="678" y="283">→ URL (search_examples.md)</text>
    <text x="567" y="283">Apostrophe handling</text>
    <text x="477" y="323">Print notes from chapter</text>
    <text x="441" y="390" text-anchor="end">\on</text>
    <text x="392" y="273">\for</text>
    <text x="199" y="305" text-anchor="end">\about</text>
    <text x="249" y="436" text-anchor="end">\in</text>
    <text x="475" y="470">hypothalamus</text>
    <text x="514" y="443">hormones</text>
    <text x="487" y="428">urges…</text>
    <text x="445" y="431" text-anchor="end">neocortex</text>
    <text x="424" y="448" text-anchor="end">nexus</text>
    <text x="429" y="484" text-anchor="end">forebrain</text>
    <text x="456" y="497" text-anchor="end">monitoring signals</text>
    <text x="498" y="494">regulate bodily fn.</text>
    <text x="519" y="464">hypothalamus is…</text>
    <text x="565" y="510">layer 4</text>
    <text x="676" y="510">Apostrophe handling</text>
    <text x="766" y="456">Apostrophe handling</text>
  </g>

  <!-- Legend -->
  <g font-size="9" fill="#6b7280">
    <circle cx="80" cy="650" r="4" fill="#c62828"/>
    <text x="90" y="653">primary (radius 1)</text>
    <circle cx="200" cy="650" r="2.5" fill="#c62828"/>
    <text x="208" y="653">orbit (radius 2)</text>
    <line x1="300" y1="650" x2="330" y2="650" stroke="#c62828" stroke-width="1.2" marker-end="url(#ah-red)"/>
    <text x="336" y="653">primary arrow</text>
    <line x1="430" y1="650" x2="460" y2="650" stroke="#e98a2e" stroke-width="1.2" marker-end="url(#ah-orange)"/>
    <text x="466" y="653">nested orbit</text>
  </g>
</svg>
